<?xml version="1.0" encoding="UTF-8" standalone="no"?>
<!DOCTYPE svg PUBLIC "-//W3C//DTD SVG 1.1//EN" "http://www.w3.org/Graphics/SVG/1.1/DTD/svg11.dtd">
<svg version="1.1" xmlns="http://www.w3.org/2000/svg" xmlns:xlink="http://www.w3.org/1999/xlink" preserveAspectRatio="xMidYMid meet" viewBox="0 0 488 488" width="488" height="488"><defs><path d="M235.62 57.97C325.01 57.97 397.46 130.26 397.46 219.43C397.46 308.6 325.01 380.9 235.62 380.9C146.26 380.9 73.8 308.6 73.8 219.43C73.8 130.26 146.25 57.97 235.62 57.97" id="cf2SwCAdM"></path><path d="M414.05 207.24C413.96 239.71 403.85 271.16 385.13 297.7C367.12 323.25 340.91 343.02 311.58 353.78C280.65 365.11 246.51 366.22 214.84 357.36C184.29 348.81 157.12 330.63 136.86 306.38C94.74 255.99 90.14 182.19 123.93 126.3C140.23 99.32 164.81 77.98 193.45 64.88C223.08 51.32 257.22 47.88 289.07 54.33C320.3 60.66 348.88 76.71 370.9 99.61C393.04 122.61 407.33 152.24 412.32 183.66C413.56 191.45 414.03 199.36 414.05 207.24C414.08 214.24 424.96 214.24 424.93 207.24C424.83 174.27 415.07 141.83 396.68 114.42C378.85 87.83 353.29 66.6 323.84 53.97C292.83 40.66 258.43 37.19 225.29 43.48C193.5 49.52 163.9 65.45 140.74 87.9C92.81 134.35 77.49 207.51 102.39 269.31C114.47 299.31 135.15 325.06 161.51 343.79C188.3 362.84 220.77 373.17 253.58 374.08C319.71 375.92 382.2 336.66 409.73 276.78C419.75 254.98 424.85 231.21 424.93 207.24C424.96 200.24 414.08 200.25 414.05 207.24" id="bw9CTE0x2"></path><path d="M144.12 95.93L298.39 194.33L144.12 30.62L144.12 95.93ZM230.48 275.65L320.57 218.3L64.03 54.73C64.03 112.51 64.03 144.61 64.03 151.03C64.11 153.84 64.52 156.61 65.25 159.33C65.98 162.04 67.01 164.64 68.35 167.12C69.69 169.6 71.29 171.88 73.16 173.99C75.04 176.09 77.13 177.94 79.44 179.56C83.44 182.11 103.48 194.87 139.53 217.83L230.48 275.65ZM86.64 252.21C84.12 253.85 64.65 266.72 64.03 287.86C64.03 294.12 64.03 325.42 64.03 381.75L222.88 280.68L132.62 223.11C108.1 238.63 92.77 248.33 86.64 252.21Z" id="aKHFuuwy"></path><path d="M53.6 428.73C52.61 428.73 44.64 428.73 43.64 428.73C43.71 439.61 52.68 444.46 62.52 444.46C71.62 444.46 81 440.59 81 430.1C81 413.13 55.24 418.83 55.24 410.9C55.24 407.56 59.11 406.25 61.86 406.25C66.77 406.25 69.46 407.76 69.99 412.41C70.94 412.41 78.54 412.41 79.49 412.41C79.16 402.25 70.9 398.19 61.73 398.19C53.6 398.19 45.08 402.51 45.08 411.68C45.08 428.14 70.84 422.56 70.84 431.22C70.84 435.22 65.99 436.46 62.91 436.46C58.06 436.46 53.86 434.04 53.6 428.73Z" id="b1DhfB7h29"></path><path d="M103.94 443.41L103.94 398.84L94.11 398.84L94.11 443.41L103.94 443.41Z" id="c2vbF3ouZd"></path><path d="M174.59 443.41L165.93 398.84L154.27 398.84L145.03 430.1L135.72 398.84L124.05 398.84L115.4 443.41L126.21 443.41L131.46 412.67L140.18 443.41L149.81 443.41L158.52 412.67L163.77 443.41L174.59 443.41Z" id="c11Spoie6V"></path><path d="M195.88 427.48C200.01 427.48 202.31 427.48 202.77 427.48C209.97 427.48 216.39 422.17 216.39 413.13C216.39 404.67 209.97 398.84 202.77 398.84C201.65 398.84 196.08 398.84 186.05 398.84L186.05 443.41L195.88 443.41L195.88 427.48ZM201.12 406.58C204.01 406.58 207.02 409.07 207.02 413.13C207.02 417.39 204.01 419.75 201.12 419.75C200.77 419.75 199.03 419.75 195.88 419.75L195.88 406.58C198.68 406.58 200.42 406.58 201.12 406.58Z" id="ebXf30db6"></path><path d="M228.52 443.41L254.34 443.41L254.34 434.49L238.35 434.49L238.35 398.84L228.52 398.84L228.52 443.41Z" id="as5lIfZqA"></path><path d="M293.6 434.49L277.61 434.49L277.61 425.52L292.94 425.52L292.94 416.6L277.61 416.6L277.61 407.76L293.6 407.76L293.6 398.84L267.78 398.84L267.78 443.41L293.6 443.41L293.6 434.49Z" id="cVvCZfHD4"></path><path d="M316.65 428.73C315.65 428.73 307.68 428.73 306.68 428.73C306.75 439.61 315.73 444.46 325.56 444.46C334.67 444.46 344.04 440.59 344.04 430.1C344.04 413.13 318.29 418.83 318.29 410.9C318.29 407.56 322.15 406.25 324.9 406.25C329.82 406.25 332.51 407.76 333.03 412.41C333.98 412.41 341.58 412.41 342.53 412.41C342.21 402.25 333.95 398.19 324.77 398.19C316.65 398.19 308.13 402.51 308.13 411.68C308.13 428.14 333.88 422.56 333.88 431.22C333.88 435.22 329.04 436.46 325.95 436.46C321.1 436.46 316.91 434.04 316.65 428.73Z" id="lVcqpBORU"></path><path d="M365.15 428.73C364.15 428.73 356.18 428.73 355.18 428.73C355.25 439.61 364.23 444.46 374.06 444.46C383.17 444.46 392.54 440.59 392.54 430.1C392.54 413.13 366.78 418.83 366.78 410.9C366.78 407.56 370.65 406.25 373.4 406.25C378.32 406.25 381 407.76 381.53 412.41C382.48 412.41 390.08 412.41 391.03 412.41C390.7 402.25 382.44 398.19 373.27 398.19C365.15 398.19 356.63 402.51 356.63 411.68C356.63 428.14 382.38 422.56 382.38 431.22C382.38 435.22 377.53 436.46 374.45 436.46C369.6 436.46 365.41 434.04 365.15 428.73Z" id="e6ctr7zdV"></path><path d="M424.58 407.76L437.3 407.76L437.3 398.84L402.04 398.84L402.04 407.76L414.76 407.76L414.76 443.41L424.58 443.41L424.58 407.76Z" id="a1aeFOfNf8"></path></defs><g><g><g><use xlink:href="#cf2SwCAdM" opacity="1" fill="#e6e6e6" fill-opacity="1"></use><g><use xlink:href="#cf2SwCAdM" opacity="1" fill-opacity="0" stroke="#000000" stroke-width="1" stroke-opacity="0"></use></g></g><g><use xlink:href="#bw9CTE0x2" opacity="1" fill="#000000" fill-opacity="1"></use><g><use xlink:href="#bw9CTE0x2" opacity="1" fill-opacity="0" stroke="#000000" stroke-width="1" stroke-opacity="0"></use></g></g><g><use xlink:href="#aKHFuuwy" opacity="1" fill="#f27329" fill-opacity="1"></use><g><use xlink:href="#aKHFuuwy" opacity="1" fill-opacity="0" stroke="#000000" stroke-width="1" stroke-opacity="0"></use></g></g><g><use xlink:href="#b1DhfB7h29" opacity="1" fill="#000000" fill-opacity="1"></use><g><use xlink:href="#b1DhfB7h29" opacity="1" fill-opacity="0" stroke="#000000" stroke-width="1" stroke-opacity="0"></use></g></g><g><use xlink:href="#c2vbF3ouZd" opacity="1" fill="#000000" fill-opacity="1"></use><g><use xlink:href="#c2vbF3ouZd" opacity="1" fill-opacity="0" stroke="#000000" stroke-width="1" stroke-opacity="0"></use></g></g><g><use xlink:href="#c11Spoie6V" opacity="1" fill="#000000" fill-opacity="1"></use><g><use xlink:href="#c11Spoie6V" opacity="1" fill-opacity="0" stroke="#000000" stroke-width="1" stroke-opacity="0"></use></g></g><g><use xlink:href="#ebXf30db6" opacity="1" fill="#000000" fill-opacity="1"></use><g><use xlink:href="#ebXf30db6" opacity="1" fill-opacity="0" stroke="#000000" stroke-width="1" stroke-opacity="0"></use></g></g><g><use xlink:href="#as5lIfZqA" opacity="1" fill="#000000" fill-opacity="1"></use><g><use xlink:href="#as5lIfZqA" opacity="1" fill-opacity="0" stroke="#000000" stroke-width="1" stroke-opacity="0"></use></g></g><g><use xlink:href="#cVvCZfHD4" opacity="1" fill="#000000" fill-opacity="1"></use><g><use xlink:href="#cVvCZfHD4" opacity="1" fill-opacity="0" stroke="#000000" stroke-width="1" stroke-opacity="0"></use></g></g><g><use xlink:href="#lVcqpBORU" opacity="1" fill="#d9560b" fill-opacity="1"></use><g><use xlink:href="#lVcqpBORU" opacity="1" fill-opacity="0" stroke="#000000" stroke-width="1" stroke-opacity="0"></use></g></g><g><use xlink:href="#e6ctr7zdV" opacity="1" fill="#d9560b" fill-opacity="1"></use><g><use xlink:href="#e6ctr7zdV" opacity="1" fill-opacity="0" stroke="#000000" stroke-width="1" stroke-opacity="0"></use></g></g><g><use xlink:href="#a1aeFOfNf8" opacity="1" fill="#d9560b" fill-opacity="1"></use><g><use xlink:href="#a1aeFOfNf8" opacity="1" fill-opacity="0" stroke="#000000" stroke-width="1" stroke-opacity="0"></use></g></g></g></g></svg>