<?xml version="1.0" encoding="UTF-8" standalone="no"?>
<!DOCTYPE svg PUBLIC "-//W3C//DTD SVG 1.1//EN" "http://www.w3.org/Graphics/SVG/1.1/DTD/svg11.dtd">
<svg version="1.1" xmlns="http://www.w3.org/2000/svg" xmlns:xlink="http://www.w3.org/1999/xlink" preserveAspectRatio="xMidYMid meet" viewBox="0 0 640 640" width="640" height="640"><defs><path d="M266.7 132.19L529.47 299.81L266.7 20.93L266.7 132.19ZM413.79 438.34L567.26 340.63L130.26 62.01C130.26 160.43 130.26 215.11 130.26 226.04C130.4 230.84 131.09 235.55 132.33 240.18C133.58 244.81 135.33 249.23 137.62 253.45C139.89 257.67 142.63 261.57 145.82 265.16C149.01 268.73 152.57 271.89 156.51 274.65C163.33 278.99 197.45 300.73 258.88 339.84L413.79 438.34ZM168.78 398.4C164.49 401.2 131.32 423.12 130.27 459.14C130.27 469.8 130.27 523.11 130.27 619.07L400.85 446.9L247.1 348.84C205.33 375.27 179.22 391.79 168.78 398.4Z" id="n4AcMItzVW"></path></defs><g><g><g><use xlink:href="#n4AcMItzVW" opacity="1" fill="#F27329" fill-opacity="1"></use><g><use xlink:href="#n4AcMItzVW" opacity="1" fill-opacity="0" stroke="#000000" stroke-width="1" stroke-opacity="0"></use></g></g></g></g></svg>
