<?xml version="1.0" encoding="UTF-8" standalone="no"?>
<!DOCTYPE svg PUBLIC "-//W3C//DTD SVG 1.1//EN" "http://www.w3.org/Graphics/SVG/1.1/DTD/svg11.dtd">
<svg version="1.1" xmlns="http://www.w3.org/2000/svg" xmlns:xlink="http://www.w3.org/1999/xlink" preserveAspectRatio="xMidYMid meet" viewBox="0 0 488 488" width="488" height="488"><defs><path d="M406.23 237.24C406.13 269.71 396.02 301.16 377.31 327.7C359.29 353.25 333.09 373.02 303.75 383.78C272.82 395.11 238.69 396.22 207.01 387.36C176.46 378.81 149.29 360.63 129.03 336.39C86.92 285.99 82.32 212.19 116.1 156.3C132.41 129.32 156.99 107.98 185.63 94.88C215.25 81.32 249.39 77.88 281.24 84.33C312.47 90.66 341.05 106.72 363.07 129.61C385.22 152.61 399.5 182.24 404.5 213.66C405.73 221.45 406.21 229.37 406.23 237.25C406.25 244.24 417.13 244.24 417.1 237.25C417 204.27 407.24 171.83 388.86 144.42C371.03 117.83 345.46 96.61 316.02 83.97C285 70.66 250.6 67.2 217.46 73.49C185.67 79.53 156.07 95.45 132.91 117.9C84.98 164.35 69.67 237.51 94.56 299.31C106.65 329.31 127.32 355.06 153.68 373.79C180.47 392.84 212.95 403.17 245.76 404.08C311.89 405.92 374.38 366.66 401.91 306.78C411.92 284.98 417.03 261.21 417.1 237.24C417.13 230.24 406.25 230.25 406.23 237.24" id="byAXmiriC"></path><path d="M136.3 125.93L290.56 224.33L136.3 60.62L136.3 125.93ZM222.65 305.66L312.75 248.3L56.2 84.73C56.2 142.51 56.2 174.61 56.2 181.03C56.29 183.84 56.69 186.61 57.42 189.33C58.15 192.04 59.18 194.64 60.52 197.12C61.86 199.6 63.47 201.88 65.34 203.99C67.21 206.09 69.3 207.94 71.61 209.56C75.62 212.11 95.65 224.87 131.71 247.83L222.65 305.66ZM78.82 282.21C76.3 283.85 56.83 296.72 56.21 317.87C56.21 324.12 56.21 355.42 56.21 411.75L215.05 310.68L124.8 253.11C100.27 268.63 84.95 278.33 78.82 282.21Z" id="fHl8uaFm8"></path><path d="M53.6 549.04C52.61 549.04 44.64 549.04 43.64 549.04C43.71 559.92 52.68 564.77 62.52 564.77C71.62 564.77 81 560.9 81 550.42C81 533.44 55.24 539.15 55.24 531.21C55.24 527.87 59.11 526.56 61.86 526.56C66.77 526.56 69.46 528.07 69.99 532.72C70.94 532.72 78.54 532.72 79.49 532.72C79.16 522.56 70.9 518.5 61.73 518.5C53.6 518.5 45.08 522.82 45.08 532C45.08 548.45 70.84 542.88 70.84 551.53C70.84 555.53 65.99 556.77 62.91 556.77C58.06 556.77 53.86 554.35 53.6 549.04Z" id="c2sqcOdXa8"></path><path d="M103.94 563.72L103.94 519.15L94.11 519.15L94.11 563.72L103.94 563.72Z" id="a12BOkWRsi"></path><path d="M174.59 563.72L165.93 519.15L154.27 519.15L145.03 550.42L135.72 519.15L124.05 519.15L115.4 563.72L126.21 563.72L131.46 532.99L140.18 563.72L149.81 563.72L158.52 532.99L163.77 563.72L174.59 563.72Z" id="bxoVvPKJB"></path><path d="M195.88 547.8C200.01 547.8 202.31 547.8 202.77 547.8C209.97 547.8 216.39 542.49 216.39 533.44C216.39 524.99 209.97 519.15 202.77 519.15C201.65 519.15 196.08 519.15 186.05 519.15L186.05 563.72L195.88 563.72L195.88 547.8ZM201.12 526.89C204.01 526.89 207.02 529.38 207.02 533.44C207.02 537.7 204.01 540.06 201.12 540.06C200.77 540.06 199.03 540.06 195.88 540.06L195.88 526.89C198.68 526.89 200.42 526.89 201.12 526.89Z" id="c1NBMWp8dm"></path><path d="M228.52 563.72L254.34 563.72L254.34 554.81L238.35 554.81L238.35 519.15L228.52 519.15L228.52 563.72Z" id="abqvvLnvg"></path><path d="M293.6 554.81L277.61 554.81L277.61 545.83L292.94 545.83L292.94 536.92L277.61 536.92L277.61 528.07L293.6 528.07L293.6 519.15L267.78 519.15L267.78 563.72L293.6 563.72L293.6 554.81Z" id="a1Yf4a0sg7"></path><path d="M316.65 549.04C315.65 549.04 307.68 549.04 306.68 549.04C306.75 559.92 315.73 564.77 325.56 564.77C334.67 564.77 344.04 560.9 344.04 550.42C344.04 533.44 318.29 539.15 318.29 531.21C318.29 527.87 322.15 526.56 324.9 526.56C329.82 526.56 332.51 528.07 333.03 532.72C333.98 532.72 341.58 532.72 342.53 532.72C342.21 522.56 333.95 518.5 324.77 518.5C316.65 518.5 308.13 522.82 308.13 532C308.13 548.45 333.88 542.88 333.88 551.53C333.88 555.53 329.04 556.77 325.95 556.77C321.1 556.77 316.91 554.35 316.65 549.04Z" id="c1Bo5lruM0"></path><path d="M365.15 549.04C364.15 549.04 356.18 549.04 355.18 549.04C355.25 559.92 364.23 564.77 374.06 564.77C383.17 564.77 392.54 560.9 392.54 550.42C392.54 533.44 366.78 539.15 366.78 531.21C366.78 527.87 370.65 526.56 373.4 526.56C378.32 526.56 381 528.07 381.53 532.72C382.48 532.72 390.08 532.72 391.03 532.72C390.7 522.56 382.44 518.5 373.27 518.5C365.15 518.5 356.63 522.82 356.63 532C356.63 548.45 382.38 542.88 382.38 551.53C382.38 555.53 377.53 556.77 374.45 556.77C369.6 556.77 365.41 554.35 365.15 549.04Z" id="c1fOOrUKGn"></path><path d="M424.58 528.07L437.3 528.07L437.3 519.15L402.04 519.15L402.04 528.07L414.76 528.07L414.76 563.72L424.58 563.72L424.58 528.07Z" id="eo6dDSeWQ"></path><path d="M232.59 642.72C321.98 642.72 394.43 715.01 394.43 804.18C394.43 893.36 321.98 965.65 232.59 965.65C143.23 965.65 70.77 893.36 70.77 804.18C70.77 715.01 143.22 642.72 232.59 642.72" id="i1zDlfT3da"></path><path d="M411.02 791.99C410.93 824.46 400.82 855.92 382.1 882.46C364.09 908 337.88 927.77 308.55 938.53C277.62 949.87 243.48 950.97 211.81 942.12C181.26 933.56 154.09 915.39 133.83 891.14C91.71 840.74 87.11 766.95 120.9 711.06C137.2 684.08 161.78 662.74 190.42 649.63C220.05 636.08 254.19 632.63 286.04 639.09C317.27 645.41 345.85 661.47 367.87 684.36C390.01 707.37 404.3 736.99 409.29 768.42C410.53 776.21 411 784.12 411.02 792C411.05 798.99 421.93 798.99 421.9 792C421.8 759.02 412.04 726.59 393.65 699.18C375.82 672.59 350.26 651.36 320.81 638.72C289.8 625.41 255.4 621.95 222.26 628.24C190.47 634.28 160.87 650.21 137.71 672.66C89.78 719.1 74.46 792.26 99.36 854.07C111.44 884.07 132.12 909.81 158.48 928.54C185.27 947.59 217.74 957.92 250.55 958.83C316.68 960.67 379.17 921.41 406.7 861.53C416.72 839.74 421.82 815.97 421.9 791.99C421.93 784.99 411.05 785 411.02 791.99" id="a1C4r0CcSg"></path><path d="M141.09 680.69L295.36 779.09L141.09 615.37L141.09 680.69ZM227.45 860.41L317.54 803.05L61 639.49C61 697.27 61 729.36 61 735.78C61.08 738.6 61.49 741.36 62.22 744.08C62.95 746.8 63.98 749.4 65.32 751.87C66.66 754.35 68.26 756.64 70.13 758.74C72.01 760.84 74.1 762.7 76.41 764.32C80.41 766.87 100.45 779.62 136.5 802.59L227.45 860.41ZM83.61 836.96C81.1 838.6 61.62 851.47 61.01 872.62C61.01 878.88 61.01 910.17 61.01 966.5L219.85 865.44L129.59 807.87C105.07 823.38 89.74 833.08 83.61 836.96Z" id="gtaWQ2Jh7"></path></defs><g><g><g><use xlink:href="#byAXmiriC" opacity="1" fill="#1a1a1e" fill-opacity="1"></use><g><use xlink:href="#byAXmiriC" opacity="1" fill-opacity="0" stroke="#000000" stroke-width="1" stroke-opacity="0"></use></g></g><g><use xlink:href="#fHl8uaFm8" opacity="1" fill="#f27329" fill-opacity="1"></use><g><use xlink:href="#fHl8uaFm8" opacity="1" fill-opacity="0" stroke="#000000" stroke-width="1" stroke-opacity="0"></use></g></g><g><use xlink:href="#c2sqcOdXa8" opacity="1" fill="#000000" fill-opacity="1"></use><g><use xlink:href="#c2sqcOdXa8" opacity="1" fill-opacity="0" stroke="#000000" stroke-width="1" stroke-opacity="0"></use></g></g><g><use xlink:href="#a12BOkWRsi" opacity="1" fill="#000000" fill-opacity="1"></use><g><use xlink:href="#a12BOkWRsi" opacity="1" fill-opacity="0" stroke="#000000" stroke-width="1" stroke-opacity="0"></use></g></g><g><use xlink:href="#bxoVvPKJB" opacity="1" fill="#000000" fill-opacity="1"></use><g><use xlink:href="#bxoVvPKJB" opacity="1" fill-opacity="0" stroke="#000000" stroke-width="1" stroke-opacity="0"></use></g></g><g><use xlink:href="#c1NBMWp8dm" opacity="1" fill="#000000" fill-opacity="1"></use><g><use xlink:href="#c1NBMWp8dm" opacity="1" fill-opacity="0" stroke="#000000" stroke-width="1" stroke-opacity="0"></use></g></g><g><use xlink:href="#abqvvLnvg" opacity="1" fill="#000000" fill-opacity="1"></use><g><use xlink:href="#abqvvLnvg" opacity="1" fill-opacity="0" stroke="#000000" stroke-width="1" stroke-opacity="0"></use></g></g><g><use xlink:href="#a1Yf4a0sg7" opacity="1" fill="#000000" fill-opacity="1"></use><g><use xlink:href="#a1Yf4a0sg7" opacity="1" fill-opacity="0" stroke="#000000" stroke-width="1" stroke-opacity="0"></use></g></g><g><use xlink:href="#c1Bo5lruM0" opacity="1" fill="#d9560b" fill-opacity="1"></use><g><use xlink:href="#c1Bo5lruM0" opacity="1" fill-opacity="0" stroke="#000000" stroke-width="1" stroke-opacity="0"></use></g></g><g><use xlink:href="#c1fOOrUKGn" opacity="1" fill="#d9560b" fill-opacity="1"></use><g><use xlink:href="#c1fOOrUKGn" opacity="1" fill-opacity="0" stroke="#000000" stroke-width="1" stroke-opacity="0"></use></g></g><g><use xlink:href="#eo6dDSeWQ" opacity="1" fill="#d9560b" fill-opacity="1"></use><g><use xlink:href="#eo6dDSeWQ" opacity="1" fill-opacity="0" stroke="#000000" stroke-width="1" stroke-opacity="0"></use></g></g><g><use xlink:href="#i1zDlfT3da" opacity="1" fill="#e6e6e6" fill-opacity="1"></use><g><use xlink:href="#i1zDlfT3da" opacity="1" fill-opacity="0" stroke="#000000" stroke-width="1" stroke-opacity="0"></use></g></g><g><use xlink:href="#a1C4r0CcSg" opacity="1" fill="#000000" fill-opacity="1"></use><g><use xlink:href="#a1C4r0CcSg" opacity="1" fill-opacity="0" stroke="#000000" stroke-width="1" stroke-opacity="0"></use></g></g><g><use xlink:href="#gtaWQ2Jh7" opacity="1" fill="#f27329" fill-opacity="1"></use><g><use xlink:href="#gtaWQ2Jh7" opacity="1" fill-opacity="0" stroke="#000000" stroke-width="1" stroke-opacity="0"></use></g></g></g></g></svg>