<?xml version="1.0" encoding="UTF-8" standalone="no"?>
<!DOCTYPE svg PUBLIC "-//W3C//DTD SVG 1.1//EN" "http://www.w3.org/Graphics/SVG/1.1/DTD/svg11.dtd">
<svg version="1.1" xmlns="http://www.w3.org/2000/svg" xmlns:xlink="http://www.w3.org/1999/xlink" preserveAspectRatio="xMidYMid meet" viewBox="0 0 488 488" width="488" height="488"><defs><path d="M240.09 80.53C329.47 80.53 401.92 152.82 401.92 241.99C401.92 331.17 329.47 403.46 240.09 403.46C150.72 403.46 78.26 331.17 78.26 241.99C78.26 152.82 150.71 80.53 240.09 80.53" id="a26rOpt7Nw"></path><path d="M418.52 229.81C418.42 262.27 408.31 293.73 389.6 320.27C371.58 345.81 345.38 365.59 316.04 376.34C285.11 387.68 250.98 388.78 219.3 379.93C188.75 371.38 161.58 353.2 141.32 328.95C99.21 278.55 94.61 204.76 128.39 148.87C144.7 121.89 169.28 100.55 197.92 87.44C227.54 73.89 261.68 70.44 293.53 76.9C324.76 83.22 353.34 99.28 375.36 122.17C397.51 145.18 411.79 174.8 416.79 206.23C418.02 214.02 418.5 221.93 418.52 229.81C418.54 236.8 429.42 236.8 429.39 229.81C429.29 196.83 419.53 164.4 401.15 136.99C383.32 110.4 357.75 89.17 328.31 76.53C297.29 63.22 262.89 59.76 229.75 66.05C197.96 72.09 168.36 88.02 145.2 110.47C97.27 156.91 81.96 230.08 106.85 291.88C118.93 321.88 139.61 347.62 165.97 366.35C192.76 385.4 225.24 395.73 258.05 396.64C324.17 398.48 386.67 359.22 414.2 299.34C424.21 277.55 429.32 253.78 429.39 229.81C429.42 222.8 418.54 222.81 418.52 229.81" id="k3s6VoM607"></path><path d="M148.59 118.5L302.85 216.9L148.59 53.19L148.59 118.5ZM234.94 298.22L325.04 240.86L68.49 77.3C68.49 135.08 68.49 167.18 68.49 173.59C68.58 176.41 68.98 179.17 69.71 181.89C70.44 184.61 71.47 187.21 72.81 189.68C74.15 192.16 75.76 194.45 77.63 196.55C79.5 198.65 81.59 200.51 83.9 202.13C87.91 204.68 107.94 217.44 144 240.4L234.94 298.22ZM91.1 274.77C88.59 276.41 69.12 289.28 68.5 310.43C68.5 316.69 68.5 347.98 68.5 404.31L227.34 303.25L137.09 245.68C112.56 261.2 97.24 270.89 91.1 274.77Z" id="d8DH3lCt5"></path><path d="M53.6 549.04C52.61 549.04 44.64 549.04 43.64 549.04C43.71 559.92 52.68 564.77 62.52 564.77C71.62 564.77 81 560.9 81 550.42C81 533.44 55.24 539.15 55.24 531.21C55.24 527.87 59.11 526.56 61.86 526.56C66.77 526.56 69.46 528.07 69.99 532.72C70.94 532.72 78.54 532.72 79.49 532.72C79.16 522.56 70.9 518.5 61.73 518.5C53.6 518.5 45.08 522.82 45.08 532C45.08 548.45 70.84 542.88 70.84 551.53C70.84 555.53 65.99 556.77 62.91 556.77C58.06 556.77 53.86 554.35 53.6 549.04Z" id="c2sqcOdXa8"></path><path d="M103.94 563.72L103.94 519.15L94.11 519.15L94.11 563.72L103.94 563.72Z" id="a12BOkWRsi"></path><path d="M174.59 563.72L165.93 519.15L154.27 519.15L145.03 550.42L135.72 519.15L124.05 519.15L115.4 563.72L126.21 563.72L131.46 532.99L140.18 563.72L149.81 563.72L158.52 532.99L163.77 563.72L174.59 563.72Z" id="bxoVvPKJB"></path><path d="M195.88 547.8C200.01 547.8 202.31 547.8 202.77 547.8C209.97 547.8 216.39 542.49 216.39 533.44C216.39 524.99 209.97 519.15 202.77 519.15C201.65 519.15 196.08 519.15 186.05 519.15L186.05 563.72L195.88 563.72L195.88 547.8ZM201.12 526.89C204.01 526.89 207.02 529.38 207.02 533.44C207.02 537.7 204.01 540.06 201.12 540.06C200.77 540.06 199.03 540.06 195.88 540.06L195.88 526.89C198.68 526.89 200.42 526.89 201.12 526.89Z" id="c1NBMWp8dm"></path><path d="M228.52 563.72L254.34 563.72L254.34 554.81L238.35 554.81L238.35 519.15L228.52 519.15L228.52 563.72Z" id="abqvvLnvg"></path><path d="M293.6 554.81L277.61 554.81L277.61 545.83L292.94 545.83L292.94 536.92L277.61 536.92L277.61 528.07L293.6 528.07L293.6 519.15L267.78 519.15L267.78 563.72L293.6 563.72L293.6 554.81Z" id="a1Yf4a0sg7"></path><path d="M316.65 549.04C315.65 549.04 307.68 549.04 306.68 549.04C306.75 559.92 315.73 564.77 325.56 564.77C334.67 564.77 344.04 560.9 344.04 550.42C344.04 533.44 318.29 539.15 318.29 531.21C318.29 527.87 322.15 526.56 324.9 526.56C329.82 526.56 332.51 528.07 333.03 532.72C333.98 532.72 341.58 532.72 342.53 532.72C342.21 522.56 333.95 518.5 324.77 518.5C316.65 518.5 308.13 522.82 308.13 532C308.13 548.45 333.88 542.88 333.88 551.53C333.88 555.53 329.04 556.77 325.95 556.77C321.1 556.77 316.91 554.35 316.65 549.04Z" id="c1Bo5lruM0"></path><path d="M365.15 549.04C364.15 549.04 356.18 549.04 355.18 549.04C355.25 559.92 364.23 564.77 374.06 564.77C383.17 564.77 392.54 560.9 392.54 550.42C392.54 533.44 366.78 539.15 366.78 531.21C366.78 527.87 370.65 526.56 373.4 526.56C378.32 526.56 381 528.07 381.53 532.72C382.48 532.72 390.08 532.72 391.03 532.72C390.7 522.56 382.44 518.5 373.27 518.5C365.15 518.5 356.63 522.82 356.63 532C356.63 548.45 382.38 542.88 382.38 551.53C382.38 555.53 377.53 556.77 374.45 556.77C369.6 556.77 365.41 554.35 365.15 549.04Z" id="c1fOOrUKGn"></path><path d="M424.58 528.07L437.3 528.07L437.3 519.15L402.04 519.15L402.04 528.07L414.76 528.07L414.76 563.72L424.58 563.72L424.58 528.07Z" id="eo6dDSeWQ"></path></defs><g><g><g><use xlink:href="#a26rOpt7Nw" opacity="1" fill="#e6e6e6" fill-opacity="1"></use><g><use xlink:href="#a26rOpt7Nw" opacity="1" fill-opacity="0" stroke="#000000" stroke-width="1" stroke-opacity="0"></use></g></g><g><use xlink:href="#k3s6VoM607" opacity="1" fill="#000000" fill-opacity="1"></use><g><use xlink:href="#k3s6VoM607" opacity="1" fill-opacity="0" stroke="#000000" stroke-width="1" stroke-opacity="0"></use></g></g><g><use xlink:href="#d8DH3lCt5" opacity="1" fill="#f27329" fill-opacity="1"></use><g><use xlink:href="#d8DH3lCt5" opacity="1" fill-opacity="0" stroke="#000000" stroke-width="1" stroke-opacity="0"></use></g></g><g><use xlink:href="#c2sqcOdXa8" opacity="1" fill="#000000" fill-opacity="1"></use><g><use xlink:href="#c2sqcOdXa8" opacity="1" fill-opacity="0" stroke="#000000" stroke-width="1" stroke-opacity="0"></use></g></g><g><use xlink:href="#a12BOkWRsi" opacity="1" fill="#000000" fill-opacity="1"></use><g><use xlink:href="#a12BOkWRsi" opacity="1" fill-opacity="0" stroke="#000000" stroke-width="1" stroke-opacity="0"></use></g></g><g><use xlink:href="#bxoVvPKJB" opacity="1" fill="#000000" fill-opacity="1"></use><g><use xlink:href="#bxoVvPKJB" opacity="1" fill-opacity="0" stroke="#000000" stroke-width="1" stroke-opacity="0"></use></g></g><g><use xlink:href="#c1NBMWp8dm" opacity="1" fill="#000000" fill-opacity="1"></use><g><use xlink:href="#c1NBMWp8dm" opacity="1" fill-opacity="0" stroke="#000000" stroke-width="1" stroke-opacity="0"></use></g></g><g><use xlink:href="#abqvvLnvg" opacity="1" fill="#000000" fill-opacity="1"></use><g><use xlink:href="#abqvvLnvg" opacity="1" fill-opacity="0" stroke="#000000" stroke-width="1" stroke-opacity="0"></use></g></g><g><use xlink:href="#a1Yf4a0sg7" opacity="1" fill="#000000" fill-opacity="1"></use><g><use xlink:href="#a1Yf4a0sg7" opacity="1" fill-opacity="0" stroke="#000000" stroke-width="1" stroke-opacity="0"></use></g></g><g><use xlink:href="#c1Bo5lruM0" opacity="1" fill="#d9560b" fill-opacity="1"></use><g><use xlink:href="#c1Bo5lruM0" opacity="1" fill-opacity="0" stroke="#000000" stroke-width="1" stroke-opacity="0"></use></g></g><g><use xlink:href="#c1fOOrUKGn" opacity="1" fill="#d9560b" fill-opacity="1"></use><g><use xlink:href="#c1fOOrUKGn" opacity="1" fill-opacity="0" stroke="#000000" stroke-width="1" stroke-opacity="0"></use></g></g><g><use xlink:href="#eo6dDSeWQ" opacity="1" fill="#d9560b" fill-opacity="1"></use><g><use xlink:href="#eo6dDSeWQ" opacity="1" fill-opacity="0" stroke="#000000" stroke-width="1" stroke-opacity="0"></use></g></g></g></g></svg>