<?xml version="1.0" encoding="UTF-8" standalone="no"?>
<!DOCTYPE svg PUBLIC "-//W3C//DTD SVG 1.1//EN" "http://www.w3.org/Graphics/SVG/1.1/DTD/svg11.dtd">
<svg version="1.1" xmlns="http://www.w3.org/2000/svg" xmlns:xlink="http://www.w3.org/1999/xlink" preserveAspectRatio="xMidYMid meet" viewBox="0 0 640 640" width="640" height="640"><defs><path d="M10.67 591.96C4.78 591.96 0 596.74 0 602.63C0 608.52 4.78 613.29 10.67 613.29C72.53 613.29 567.47 613.29 629.33 613.29C635.22 613.29 640 608.52 640 602.63C640 596.74 635.22 591.96 629.33 591.96C505.6 591.96 72.53 591.96 10.67 591.96Z" id="c2F5Tvs6n5"></path><path d="M423.58 196.23C419.42 192.06 412.67 192.06 408.5 196.23C403.31 201.41 377.37 227.33 330.67 274C287.9 231.23 264.14 207.47 259.39 202.72C306.44 195.7 341.28 155.32 341.33 107.75C341.33 107.56 341.33 106.11 341.33 105.92C341.33 88.25 327.01 73.92 309.33 73.92C291.66 73.92 277.33 88.25 277.33 105.92C277.31 124.6 262.17 139.73 243.5 139.75C224.76 139.78 206.18 143.09 188.59 149.53C199.92 116.05 181.96 79.72 148.48 68.39C115 57.06 78.67 75.02 67.34 108.5C56.01 141.98 73.97 178.31 107.45 189.64C112.73 191.42 118.23 192.51 123.8 192.88C123.47 193.21 120.86 195.89 120.53 196.23C75.13 241.63 75.13 315.24 120.53 360.64C120.94 361.05 124.17 364.28 124.58 364.69C137.62 377.65 158.7 377.58 171.66 364.54C177.84 358.31 181.32 349.9 181.33 341.12C181.36 332.29 177.85 323.81 171.58 317.58C171.18 317.18 167.95 313.94 167.54 313.54C151.09 297.03 148.29 271.33 160.81 251.67C170.7 261.56 220.15 310.99 309.16 399.96C258.07 399.96 229.68 399.96 224 399.96C218.11 399.96 213.33 404.74 213.33 410.63C213.33 416.52 218.11 421.29 224 421.29C231.1 421.29 266.58 421.29 330.45 421.29L341.33 432.17C341.33 489.65 341.33 521.57 341.33 527.96C341.35 535.45 343.34 542.81 347.1 549.29C340.13 549.29 284.31 549.29 277.33 549.29C271.44 549.29 266.67 554.07 266.67 559.96C266.67 565.85 271.44 570.63 277.33 570.63C284.43 570.63 319.88 570.63 383.71 570.63C383.88 570.63 383.98 570.63 384 570.63C407.56 570.63 426.67 551.52 426.67 527.96C426.67 514.73 426.67 408.92 426.67 395.69C426.67 392.86 425.54 390.15 423.54 388.15C420.49 385.1 405.22 369.84 377.75 342.36L416 304.17C451 339.14 470.45 358.57 474.34 362.46C490.28 378.4 516.14 378.4 532.09 362.46C548.03 346.51 548.03 320.65 532.09 304.71C510.39 283.01 434.43 207.07 423.58 196.23ZM128 86.41C151.56 86.41 170.67 105.52 170.67 129.08C170.67 152.64 151.56 171.75 128 171.75C104.44 171.75 85.33 152.64 85.33 129.08C85.33 105.52 104.44 86.41 128 86.41ZM503.21 353.03C498.04 353.01 493.09 350.96 489.42 347.32C482.84 340.74 430.17 288.13 423.58 281.56C419.42 277.39 412.67 277.39 408.5 281.56C403.17 286.89 360.53 329.56 355.2 334.89C351.04 339.06 351.04 345.81 355.2 349.97C358.54 353.32 375.25 370.05 405.33 400.17C405.33 476.85 405.33 519.44 405.33 527.96C405.33 539.74 395.78 549.29 384 549.29C372.22 549.29 362.67 539.74 362.67 527.96C362.67 517.93 362.67 437.72 362.67 427.69C362.67 424.86 361.54 422.15 359.54 420.15C340.34 400.95 186.74 247.35 167.54 228.15C163.38 223.99 156.62 223.99 152.46 228.15C124.77 255.9 124.77 300.82 152.46 328.57C152.86 328.97 156.1 332.21 156.5 332.61C161.17 337.28 161.18 344.85 156.51 349.52C154.26 351.77 151.22 353.03 148.04 353.03C144.87 353.02 141.83 351.76 139.58 349.53C139.18 349.12 135.95 345.89 135.54 345.49C98.47 308.41 98.47 248.31 135.54 211.23C136.48 210.3 143.98 202.81 144.92 201.87C171 175.64 206.5 160.93 243.5 161.03C273.93 161 298.6 136.35 298.67 105.92C298.67 100.03 303.44 95.26 309.33 95.26C315.22 95.26 320 100.03 320 105.92C320 106.11 320 107.56 320 107.75C319.95 148.96 286.55 182.37 245.33 182.41C239.44 182.41 234.67 187.19 234.67 193.08C234.67 194.15 234.67 202.68 234.67 203.75C234.67 206.58 235.79 209.29 237.79 211.29C246.33 219.82 314.59 288.09 323.13 296.62C327.29 300.79 334.04 300.79 338.21 296.62C343.39 291.44 369.32 265.51 416 218.84C476.58 279.41 510.23 313.06 516.96 319.79C524.54 327.45 524.48 339.8 516.83 347.38C513.2 350.97 508.31 353 503.21 353.03Z" id="evlB40iXP"></path><path d="M213.33 549.29C207.44 549.29 202.67 554.07 202.67 559.96C202.67 565.85 207.44 570.63 213.33 570.63C215.47 570.63 232.53 570.63 234.67 570.63C240.56 570.63 245.33 565.85 245.33 559.96C245.33 554.07 240.56 549.29 234.67 549.29C230.4 549.29 215.47 549.29 213.33 549.29Z" id="fj86I4zdR"></path><path d="M160 399.96C154.11 399.96 149.33 404.74 149.33 410.63C149.33 416.52 154.11 421.29 160 421.29C162.13 421.29 179.2 421.29 181.33 421.29C187.22 421.29 192 416.52 192 410.63C192 404.74 187.22 399.96 181.33 399.96C177.07 399.96 162.13 399.96 160 399.96Z" id="a9WP774PF"></path></defs><g><g><g><use xlink:href="#c2F5Tvs6n5" opacity="1" fill="#000000" fill-opacity="1"></use><g><use xlink:href="#c2F5Tvs6n5" opacity="1" fill-opacity="0" stroke="#000000" stroke-width="1" stroke-opacity="0"></use></g></g><g><use xlink:href="#evlB40iXP" opacity="1" fill="#000000" fill-opacity="1"></use><g><use xlink:href="#evlB40iXP" opacity="1" fill-opacity="0" stroke="#000000" stroke-width="1" stroke-opacity="0"></use></g></g><g><use xlink:href="#fj86I4zdR" opacity="1" fill="#000000" fill-opacity="1"></use><g><use xlink:href="#fj86I4zdR" opacity="1" fill-opacity="0" stroke="#000000" stroke-width="1" stroke-opacity="0"></use></g></g><g><use xlink:href="#a9WP774PF" opacity="1" fill="#000000" fill-opacity="1"></use><g><use xlink:href="#a9WP774PF" opacity="1" fill-opacity="0" stroke="#000000" stroke-width="1" stroke-opacity="0"></use></g></g></g></g></svg>