<svg id="Capa_1" enable-background="new 0 0 512.01 512.01" height="512" viewBox="0 0 512.01 512.01" width="512" xmlns="http://www.w3.org/2000/svg"><path d="m206.254 362.898c2.629 0 5.18-1.385 6.554-3.842 2.021-3.616.728-8.185-2.888-10.206-28.736-16.061-46.836-45.222-48.417-78.007-.199-4.137-3.726-7.32-7.853-7.13-4.138.199-7.329 3.715-7.13 7.853 1.832 37.989 22.797 71.775 56.081 90.378 1.159.647 2.415.954 3.653.954z"/><path d="m196.751 182.689c2.148 3.544 6.761 4.674 10.302 2.528 14.72-8.918 31.647-13.632 48.953-13.632 18.079 0 35.652 5.116 50.82 14.794 1.25.797 2.646 1.178 4.027 1.178 2.476 0 4.899-1.225 6.329-3.467 2.229-3.492 1.204-8.128-2.288-10.357-17.582-11.219-37.945-17.149-58.889-17.149-20.046 0-39.662 5.465-56.727 15.803-3.54 2.148-4.672 6.76-2.527 10.302z"/><path d="m350.398 272.682c-2.173 32.167-20.368 60.717-48.671 76.372-3.625 2.005-4.938 6.568-2.933 10.193 2.004 3.625 6.567 4.938 10.192 2.933 32.783-18.133 53.859-51.212 56.378-88.487.278-4.132-2.845-7.709-6.978-7.988-4.137-.287-7.708 2.844-7.988 6.977z"/><path d="m511.054 302.262c-10.202-35.874-33.605-65.899-65.899-84.543-18.533-10.701-39.111-17.085-60.162-18.739 10.005-19.822 15.246-41.753 15.246-64.124 0-37.291-14.301-72.571-40.267-99.343-9.571-9.867-25.281-10.075-35.115-.536-9.828 9.533-10.069 25.285-.536 35.114 8.572 8.838 15.202 19.063 19.704 30.39 1.53 3.85 5.891 5.73 9.74 4.2s5.729-5.891 4.199-9.74c-5.231-13.164-12.929-25.038-22.876-35.293-3.774-3.892-3.68-10.129.212-13.904 3.79-3.675 10.029-3.783 13.904.212 23.237 23.958 36.034 55.529 36.034 88.899 0 23.81-6.635 47.062-19.187 67.241-1.447 2.326-1.511 5.256-.166 7.643 1.33 2.361 3.829 3.818 6.534 3.818h.09c.499-.006.994-.009 1.492-.009 22.206 0 44.186 5.92 63.652 17.16 28.898 16.684 49.842 43.553 58.972 75.656 1.486 5.224-1.539 10.66-6.767 12.146-5.222 1.485-10.661-1.535-12.147-6.768-7.725-27.159-25.442-49.89-49.89-64.005-24.992-14.43-54.105-18.263-81.982-10.793-27.873 7.469-51.171 25.346-65.601 50.338-20.255 35.083-18.317 76.351.157 108.271 9.422 16.281 23.042 29.875 39.387 39.312 24.453 14.118 52.999 18.096 80.375 11.203 5.282-1.328 10.611 1.873 11.935 7.135 1.323 5.258-1.878 10.612-7.135 11.936-10.293 2.59-20.839 3.904-31.345 3.904-22.219 0-44.232-5.928-63.662-17.146-20.166-11.644-36.738-28.554-47.924-48.903-1.307-2.378-3.797-3.865-6.511-3.887-2.718-.005-5.227 1.423-6.573 3.779-11.15 19.513-27.361 35.785-46.883 47.056-19.429 11.217-41.442 17.146-63.662 17.146-10.506 0-21.051-1.313-31.344-3.903-5.258-1.324-8.459-6.678-7.136-11.935 1.324-5.265 6.659-8.464 11.935-7.136 27.383 6.892 55.926 2.914 80.375-11.203 51.711-29.856 69.261-96.119 39.544-147.583-14.429-24.992-37.726-42.869-65.601-50.338-27.875-7.468-56.99-3.635-81.982 10.793-3.124 1.803-6.245 3.827-9.279 6.014-3.359 2.422-4.119 7.11-1.697 10.47 2.424 3.36 7.11 4.119 10.471 1.697 2.624-1.893 5.318-3.639 8.006-5.19 21.521-12.424 46.597-15.727 70.6-9.294 24.005 6.432 44.068 21.827 56.493 43.35 25.161 43.574 11.306 100.903-34.054 127.092-21.054 12.156-45.635 15.583-69.212 9.647-13.306-3.351-26.794 4.706-30.145 18.021-3.341 13.278 4.743 26.8 18.021 30.143 11.489 2.891 23.267 4.357 35.005 4.357 24.849 0 49.456-6.624 71.162-19.155 18.215-10.517 33.854-24.932 45.775-42.101 12.08 18.035 28.18 33.123 47.115 44.056 21.707 12.532 46.314 19.156 71.162 19.155 11.739 0 23.517-1.466 35.005-4.357 13.278-3.342 21.363-16.863 18.021-30.142-3.35-13.308-16.828-21.373-30.144-18.021-23.576 5.935-48.158 2.509-69.213-9.647-45.912-26.508-58.932-84.002-34.054-127.093 12.427-21.522 32.489-36.917 56.493-43.349 24.006-6.433 49.076-3.132 70.6 9.294 21.052 12.155 36.31 31.729 42.962 55.117 3.753 13.202 17.473 20.847 30.678 17.093 13.204-3.754 20.85-17.475 17.095-30.678z"/><path d="m232.257 270.355c0 12.047 9.801 21.848 21.848 21.848s21.848-9.801 21.848-21.848-9.801-21.848-21.848-21.848-21.848 9.801-21.848 21.848zm28.696 0c0 3.776-3.072 6.848-6.848 6.848s-6.848-3.072-6.848-6.848 3.072-6.848 6.848-6.848 6.848 3.072 6.848 6.848z"/><path d="m65.631 269.358c-3.187-2.646-7.915-2.208-10.562.979-9.637 11.606-16.624 24.88-20.77 39.453-2.404 8.449-13.82 9.679-18.046 2.096-1.278-2.294-1.587-4.949-.868-7.476 9.129-32.103 30.072-58.971 58.972-75.656 20.444-11.803 43.589-17.717 66.926-17.114 2.739.067 5.292-1.353 6.672-3.716s1.363-5.29-.043-7.637c-11.828-19.737-18.08-42.362-18.08-65.43 0-33.37 12.797-64.942 36.033-88.898 3.776-3.893 10.016-3.987 13.905-.212 3.892 3.774 3.986 10.012.212 13.903-19.659 20.268-30.485 46.977-30.485 75.208 0 59.572 48.466 108.038 108.038 108.038s108.038-48.466 108.038-108.038c0-4.243-.252-8.541-.749-12.773-.483-4.114-4.211-7.051-8.324-6.574-4.114.483-7.058 4.21-6.573 8.324.429 3.654.646 7.362.646 11.023 0 51.301-41.736 93.038-93.038 93.038s-93.038-41.737-93.038-93.038c0-24.31 9.323-47.31 26.253-64.764 9.533-9.829 9.292-25.581-.536-35.114-9.826-9.534-25.578-9.294-35.115.535-25.966 26.771-40.267 62.052-40.267 99.343 0 21.551 4.884 42.759 14.209 62.027-21.757 1.392-43.037 7.826-62.184 18.88-32.295 18.646-55.698 48.67-65.899 84.543-1.814 6.38-1.036 13.085 2.192 18.88 10.741 19.276 39.566 15.847 45.577-5.294 3.57-12.553 9.587-23.983 17.883-33.974 2.646-3.188 2.208-7.916-.979-10.562z"/></svg>